<?xml version="1.0" standalone="no"?>
<!DOCTYPE svg PUBLIC "-//W3C//DTD SVG 20010904//EN"
 "http://www.w3.org/TR/2001/REC-SVG-20010904/DTD/svg10.dtd">
<svg version="1.0" xmlns="http://www.w3.org/2000/svg"
 width="300.000000pt" height="300.000000pt" viewBox="0 0 300.000000 300.000000"
 preserveAspectRatio="xMidYMid meet">
<metadata>
Created by potrace 1.10, written by Peter Selinger 2001-2011
</metadata>
<g transform="translate(0.000000,300.000000) scale(0.100000,-0.100000)"
fill="#a50404" stroke="none">
<path d="M0 1500 l0 -1500 1500 0 1500 0 0 1500 0 1500 -1500 0 -1500 0 0
-1500z m990 1005 l0 -165 165 0 165 0 0 165 0 165 165 0 165 0 0 -165 0 -165
165 0 165 0 0 -825 0 -825 165 0 165 0 0 990 0 990 180 0 180 0 0 -1170 0
-1170 -510 0 -510 0 0 510 0 510 -165 0 -165 0 0 -510 0 -510 -165 0 -165 0 0
510 0 510 -165 0 -165 0 0 -510 0 -510 -165 0 -165 0 0 1170 0 1170 330 0 330
0 0 -165z"/>
<path d="M660 2010 l0 -330 165 0 165 0 0 -165 0 -165 165 0 165 0 0 165 0
165 165 0 165 0 0 330 0 330 -165 0 -165 0 0 -330 0 -330 -165 0 -165 0 0 330
0 330 -165 0 -165 0 0 -330z"/>
</g>
</svg>
